<svg xmlns="http://www.w3.org/2000/svg" viewBox="0 0 256 257">
  <defs>
    <linearGradient id="vite-a" x1="0%" x2="57.636%" y1="7.723%" y2="78.04%">
      <stop offset="0%" stop-color="#41D1FF"/>
      <stop offset="100%" stop-color="#BD34FE"/>
    </linearGradient>
    <linearGradient id="vite-b" x1="43.376%" x2="50.316%" y1="2.242%" y2="89.03%">
      <stop offset="0%" stop-color="#FFEA83"/>
      <stop offset="8.333%" stop-color="#FFDD35"/>
      <stop offset="100%" stop-color="#FFA800"/>
    </linearGradient>
  </defs>
  <path fill="url(#vite-a)" d="M255.153 37.938 134.897 252.976c-2.489 4.453-8.883 4.479-11.409.048L.919 37.959c-2.746-4.82 1.376-10.66 6.836-9.685l120.386 21.511a6.59 6.59 0 0 0 2.32-.004l117.606-21.477c5.44-.993 9.785 4.796 7.086 9.634Z"/>
  <path fill="url(#vite-b)" d="m185.433.807-89.819 17.6a3.283 3.283 0 0 0-2.64 3.028l-5.525 93.247a3.283 3.283 0 0 0 4.02 3.376l25.001-5.77c2.34-.54 4.454 1.522 3.973 3.873l-7.425 36.289c-.5 2.443 1.794 4.533 4.185 3.8l15.444-4.735c2.394-.734 4.691 1.363 4.184 3.808l-11.801 56.952c-.738 3.559 3.996 5.5 5.972 2.45l1.32-2.037 73.176-146.01c1.226-2.447-.888-5.24-3.573-4.722l-25.735 4.965c-2.418.466-4.477-1.787-3.795-4.153L189.197 4.94c.683-2.37-1.34-4.607-3.764-4.133Z"/>
</svg>
