<svg width="1600" height="1000" viewBox="0 0 1600 1000" fill="none" xmlns="http://www.w3.org/2000/svg">
  <defs>
    <clipPath id="top-left">
      <rect width="800" height="500"/>
    </clipPath>
    <clipPath id="top-right">
      <rect x="800" width="800" height="500"/>
    </clipPath>
    <clipPath id="bottom-left">
      <rect y="500" width="800" height="500"/>
    </clipPath>
    <clipPath id="bottom-right">
      <rect x="800" y="500" width="800" height="500"/>
    </clipPath>
  </defs>

  <g fill="none" stroke="#FAEFE6" stroke-width="1.5" opacity="0.58">
    <g clip-path="url(#top-left)" transform="translate(-108 -75) scale(1.36 1.39)">
      <path d="M-120 78C34-71 283-95 474-13C624 51 743 180 705 304C666 430 487 488 331 458C189 431 126 339 19 283C-85 228-165 182-120 78Z"/>
      <path d="M-99 88C45-51 277-73 456 4C597 64 708 184 673 298C637 415 470 469 325 441C192 415 133 327 33 274C-64 223-141 185-99 88Z"/>
      <path d="M-78 98C55-31 270-51 438 20C569 76 672 187 640 292C607 399 453 449 318 423C195 399 140 313 47 264C-43 217-117 187-78 98Z"/>
      <path d="M-57 108C66-11 264-29 420 37C542 89 637 191 608 286C578 384 436 430 312 406C198 384 147 299 61 254C-22 211-94 189-57 108Z"/>
      <path d="M-36 118C77 9 257-7 402 53C514 101 601 194 575 280C548 368 419 410 305 388C201 368 154 285 75 244C-1 204-70 191-36 118Z"/>
      <path d="M-15 128C88 29 251 15 384 70C487 113 566 198 543 274C519 353 402 391 299 371C204 353 161 271 89 234C20 198-47 194-15 128Z"/>
      <path d="M6 138C99 49 244 37 366 86C459 125 530 201 510 268C489 337 385 371 292 353C207 337 168 257 103 224C41 191-23 196 6 138Z"/>
      <path d="M27 148C110 69 238 59 348 103C432 137 495 205 478 262C460 322 368 352 286 336C210 322 175 243 117 214C62 185 0 198 27 148Z"/>
      <path d="M48 158C121 89 231 81 330 119C404 149 459 208 445 256C430 306 351 332 279 318C213 306 182 229 131 204C83 178 24 201 48 158Z"/>
      <path d="M69 168C132 109 225 103 312 136C377 161 424 212 413 250C401 291 334 313 273 301C216 291 189 215 145 194C104 172 47 203 69 168Z"/>
      <path d="M90 178C143 129 218 125 294 152C349 173 388 215 380 244C371 275 317 293 266 283C219 275 196 201 159 184C125 165 71 205 90 178Z"/>
      <path d="M111 188C154 149 212 147 276 169C322 185 353 219 348 238C342 260 300 274 260 266C222 260 203 187 173 174C146 159 95 207 111 188Z"/>
      <path d="M132 198C165 169 205 169 258 185C294 197 317 222 315 232C312 244 283 254 253 248C225 244 210 173 187 164C167 152 119 210 132 198Z"/>
    </g>

    <g clip-path="url(#top-right)" transform="translate(-48 -8) scale(1.06 1.08)">
      <path d="M870 91C989-8 1175-20 1325 37C1454 86 1563 185 1549 279C1536 377 1399 429 1270 413C1145 398 1088 326 998 289C911 254 837 214 845 155C848 128 858 107 870 91Z"/>
      <path d="M889 104C998 14 1168 3 1307 55C1425 99 1524 189 1512 273C1500 362 1376 409 1257 395C1142 381 1090 315 1008 281C928 249 860 213 867 161C870 137 879 118 889 104Z"/>
      <path d="M908 117C1008 36 1162 26 1289 73C1397 113 1486 194 1475 268C1465 347 1353 390 1245 377C1140 365 1093 305 1018 274C945 245 883 212 890 167C892 146 900 130 908 117Z"/>
      <path d="M927 130C1017 57 1155 49 1271 91C1368 126 1447 198 1438 262C1429 332 1330 370 1232 359C1137 348 1095 294 1028 266C962 240 906 211 912 173C914 155 921 141 927 130Z"/>
      <path d="M946 143C1027 79 1149 72 1253 109C1340 140 1409 203 1401 257C1394 317 1307 351 1220 341C1135 332 1098 284 1038 259C979 236 929 210 935 179C937 164 942 151 946 143Z"/>
      <path d="M965 156C1036 100 1142 95 1235 127C1311 153 1370 207 1364 251C1358 302 1284 331 1207 323C1132 315 1100 273 1048 251C996 231 952 209 957 185C959 172 963 162 965 156Z"/>
      <path d="M984 169C1046 122 1136 118 1217 145C1283 166 1332 212 1327 246C1322 287 1261 312 1195 305C1130 299 1103 263 1058 244C1013 227 975 208 980 191C981 181 983 174 984 169Z"/>
      <path d="M1003 182C1055 143 1129 141 1199 163C1254 180 1293 216 1290 240C1287 272 1238 292 1182 287C1127 282 1105 252 1068 236C1030 222 998 207 1002 197C1002 190 1003 185 1003 182Z"/>
      <path d="M1022 195C1065 165 1123 164 1181 181C1226 194 1255 221 1253 235C1252 257 1215 273 1170 269C1125 265 1108 242 1078 229C1047 218 1021 206 1021 202C1021 198 1022 196 1022 195Z"/>
      <path d="M1041 208C1074 186 1116 187 1163 199C1197 207 1216 225 1216 229C1216 242 1192 253 1157 251C1122 249 1110 231 1088 221C1064 213 1044 205 1041 208Z"/>
    </g>

    <g clip-path="url(#bottom-left)" transform="translate(-28 -292) scale(1.12 1.36)">
      <path d="M-120 925C-48 775 157 652 356 669C527 683 649 801 724 915C784 1008 781 1101 728 1174H-146C-190 1100-182 1023-120 925Z"/>
      <path d="M-93 929C-26 789 165 675 350 691C510 704 624 814 694 920C750 1006 747 1092 698 1160H-118C-159 1091-151 1019-93 929Z"/>
      <path d="M-67 934C-4 803 173 698 345 713C494 725 600 827 665 925C717 1004 714 1084 668 1147H-90C-128 1082-121 1017-67 934Z"/>
      <path d="M-40 938C18 818 180 721 339 735C477 746 575 840 635 930C683 1003 680 1075 638 1133H-62C-97 1074-90 1015-40 938Z"/>
      <path d="M-14 943C40 832 188 744 334 757C461 767 551 853 606 935C650 1002 647 1067 608 1120H-34C-66 1065-59 1013-14 943Z"/>
      <path d="M13 947C62 847 195 767 328 779C444 788 526 866 576 940C616 1000 613 1058 578 1106H-6C-35 1057-29 1011 13 947Z"/>
      <path d="M40 952C84 862 203 790 323 801C428 809 502 879 547 945C583 999 580 1050 548 1093H22C-4 1048 2 1009 40 952Z"/>
      <path d="M66 956C106 876 210 813 317 823C411 830 477 892 517 950C549 997 546 1041 518 1079H50C27 1040 32 1007 66 956Z"/>
      <path d="M93 961C128 891 218 836 312 845C395 851 453 905 488 955C516 996 513 1033 488 1066H78C58 1031 62 1005 93 961Z"/>
      <path d="M119 965C150 905 225 859 306 867C378 872 428 918 458 960C482 994 479 1024 458 1052H106C89 1023 93 1003 119 965Z"/>
      <path d="M146 970C172 920 233 882 301 889C362 893 404 931 429 965C449 993 446 1016 428 1039H134C120 1015 124 1001 146 970Z"/>
      <path d="M172 974C194 934 240 905 295 911C345 914 379 944 399 970C415 991 412 1007 398 1025H162C151 1006 154 999 172 974Z"/>
    </g>

    <g clip-path="url(#bottom-right)" transform="translate(-234 -218) scale(1.20 1.31)">
      <path d="M864 602C1017 525 1224 548 1366 648C1495 739 1604 873 1648 1004C1682 1104 1668 1179 1614 1240H817C751 1168 748 1072 787 961C824 855 733 668 864 602Z"/>
      <path d="M882 620C1026 549 1219 570 1352 663C1472 747 1574 873 1615 994C1647 1087 1633 1156 1583 1213H841C780 1146 777 1057 814 954C848 855 759 681 882 620Z"/>
      <path d="M900 638C1034 572 1213 592 1337 678C1449 756 1543 872 1581 984C1610 1070 1598 1134 1551 1186H865C808 1124 806 1042 840 947C872 856 786 694 900 638Z"/>
      <path d="M918 656C1043 596 1208 614 1323 693C1426 765 1513 872 1548 974C1575 1053 1563 1111 1520 1159H889C837 1102 835 1027 867 940C896 856 812 707 918 656Z"/>
      <path d="M936 674C1051 619 1202 636 1308 708C1403 773 1482 871 1514 964C1538 1036 1528 1089 1488 1132H913C865 1080 864 1012 893 933C920 857 839 720 936 674Z"/>
      <path d="M954 692C1060 643 1197 658 1294 723C1380 782 1452 871 1481 954C1502 1019 1493 1066 1457 1105H937C894 1058 893 997 920 926C944 857 865 733 954 692Z"/>
      <path d="M972 710C1068 666 1191 680 1279 738C1357 790 1421 870 1447 944C1466 1002 1458 1044 1425 1078H961C922 1036 922 982 946 919C968 858 892 746 972 710Z"/>
      <path d="M990 728C1077 690 1186 702 1265 753C1334 799 1391 870 1414 934C1430 985 1423 1021 1394 1051H985C951 1014 951 967 973 912C992 858 918 759 990 728Z"/>
      <path d="M1008 746C1085 713 1180 724 1250 768C1311 807 1360 869 1380 924C1394 968 1388 999 1362 1024H1009C979 992 980 952 999 905C1016 859 945 772 1008 746Z"/>
      <path d="M1026 764C1094 737 1175 746 1236 783C1288 816 1330 869 1347 914C1358 951 1353 976 1331 997H1033C1008 970 1009 937 1026 898C1040 859 971 785 1026 764Z"/>
      <path d="M1044 782C1102 760 1169 768 1221 798C1265 824 1299 868 1313 904C1322 934 1318 954 1299 970H1057C1036 948 1038 922 1052 891C1064 860 998 798 1044 782Z"/>
      <path d="M1062 800C1111 784 1164 790 1207 813C1242 833 1269 868 1280 894C1286 917 1283 931 1268 943H1081C1064 926 1067 907 1079 884C1088 860 1024 811 1062 800Z"/>
      <path d="M1080 818C1119 807 1158 812 1192 828C1219 841 1238 867 1246 884C1250 900 1248 909 1236 916H1105C1093 904 1096 892 1105 877C1112 861 1051 824 1080 818Z"/>
    </g>
  </g>
</svg>
