<svg width="390" height="1500" viewBox="0 0 390 1500" fill="none" xmlns="http://www.w3.org/2000/svg">
  <g fill="none" stroke="#FAEFE6" stroke-width="1.25" opacity="0.58">
    <g transform="scale(1.5 1)">
      <path d="M-88 39C-25-25 83-42 165-8C232 20 278 83 264 143C249 207 168 243 96 226C30 211-4 165-51 132C-94 102-122 73-88 39Z"/>
      <path d="M-70 49C-14-8 80-23 151 7C209 31 249 86 237 138C224 193 155 223 93 209C36 196 7 156-34 127C-71 101-100 79-70 49Z"/>
      <path d="M-52 59C-3 9 77-4 137 22C186 42 220 89 210 133C199 179 142 203 90 192C42 181 18 147-17 122C-48 100-78 85-52 59Z"/>
      <path d="M-34 69C8 26 74 15 123 37C163 53 191 92 183 128C174 165 129 183 87 175C48 166 29 138 0 117C-25 99-56 91-34 69Z"/>
      <path d="M-16 79C19 43 71 34 109 52C140 64 162 95 156 123C149 151 116 163 84 158C54 151 40 129 17 112C-2 98-34 97-16 79Z"/>
      <path d="M2 89C30 60 68 53 95 67C117 75 133 98 129 118C124 137 103 143 81 141C60 136 51 120 34 107C21 97-12 103 2 89Z"/>
    </g>

    <g transform="translate(-273 0) scale(1.7 1)">
      <path d="M286 250C343 210 425 222 460 278C490 326 469 389 414 414C363 437 306 411 283 365C262 324 249 276 286 250Z"/>
      <path d="M300 268C348 234 416 244 445 291C470 331 452 383 407 404C365 423 318 401 299 363C282 329 269 290 300 268Z"/>
      <path d="M314 286C353 258 407 267 430 304C450 336 436 377 400 394C367 409 330 391 315 361C301 334 289 304 314 286Z"/>
      <path d="M328 304C358 282 398 290 415 317C430 341 420 371 393 384C369 395 342 381 331 359C320 339 309 318 328 304Z"/>
      <path d="M342 322C363 306 389 312 400 330C410 346 404 365 386 374C370 381 354 371 347 357C340 344 328 332 342 322Z"/>
    </g>

    <g transform="scale(2.45 1)">
      <path d="M-91 568C-22 520 75 532 119 600C158 660 136 740 67 774C4 805-69 776-99 717C-126 664-137 600-91 568Z"/>
      <path d="M-72 589C-13 548 68 558 105 615C138 665 119 731 61 760C8 786-53 761-78 712C-101 668-111 616-72 589Z"/>
      <path d="M-53 610C-4 576 61 584 91 630C117 670 102 722 55 746C13 766-37 746-57 707C-76 672-85 632-53 610Z"/>
      <path d="M-34 631C5 604 54 610 77 645C97 675 85 713 49 732C18 746-21 731-36 702C-51 676-59 648-34 631Z"/>
      <path d="M-15 652C14 632 47 636 63 660C77 680 68 704 43 718C22 726-5 716-15 697C-26 680-33 664-15 652Z"/>
    </g>

    <g transform="translate(-390 0) scale(2 1)">
      <path d="M267 855C330 808 421 820 458 886C491 944 463 1019 397 1045C337 1069 273 1035 250 978C229 928 226 885 267 855Z"/>
      <path d="M283 876C336 837 412 847 443 902C470 950 447 1012 392 1034C342 1054 289 1025 270 977C253 935 249 901 283 876Z"/>
      <path d="M299 897C342 866 403 874 428 918C450 956 431 1005 387 1023C347 1039 305 1015 290 976C276 943 272 917 299 897Z"/>
      <path d="M315 918C348 895 394 901 413 934C430 962 416 999 382 1012C352 1024 321 1005 310 975C299 951 294 933 315 918Z"/>
      <path d="M331 939C354 924 385 928 398 950C409 968 401 992 377 1001C357 1009 337 995 330 974C323 959 316 949 331 939Z"/>
    </g>

    <g transform="scale(1.7 1)">
      <path d="M-75 1193C-8 1133 99 1120 173 1167C238 1208 259 1288 221 1348C186 1405 103 1424 38 1388C-21 1356-58 1303-91 1255C-119 1214-108 1223-75 1193Z"/>
      <path d="M-56 1210C1 1159 91 1149 154 1189C208 1223 225 1290 194 1341C164 1388 95 1404 40 1373C-10 1346-41 1301-69 1261C-92 1226-84 1235-56 1210Z"/>
      <path d="M-37 1227C10 1185 83 1178 135 1211C178 1238 192 1293 167 1334C143 1371 87 1384 42 1358C2 1336-24 1299-47 1267C-65 1238-60 1247-37 1227Z"/>
      <path d="M-18 1244C19 1211 75 1207 116 1233C148 1253 159 1295 140 1327C122 1354 79 1364 44 1343C14 1326-7 1297-25 1273C-38 1250-36 1259-18 1244Z"/>
      <path d="M1 1261C28 1237 67 1236 97 1255C118 1268 126 1298 113 1320C101 1337 71 1344 46 1328C26 1316 10 1295-3 1279C-11 1262-12 1271 1 1261Z"/>
    </g>
  </g>
</svg>
